<svg xmlns="http://www.w3.org/2000/svg" width="130" height="41" viewBox="0 0 130 41" fill="none"><g clip-path="url(#clip0_22516_8246)"><path d="M0.0107422 40.9575H130V0.963135H0.0107422V40.9575ZM1.93099 3.05122H128.09V38.8744H1.93099V3.05122Z" fill="#222222"></path><path d="M32.8077 15.7969V17.4407H27.5702V19.8842H32.5115V21.528H27.5702V25.8374H25.3093V15.7969H32.8077Z" fill="#222222"></path><path d="M63.5863 15.7969V17.4407H59.7804V25.8473H57.5196V17.4407H53.7136V15.7969H63.5863Z" fill="#222222"></path><path d="M68.5477 15.7969H70.8085V21.9426C70.8085 23.6111 71.8797 24.5589 73.5976 24.5589C75.3154 24.5589 76.3767 23.7345 76.3767 21.8883V15.7969H78.6376V21.839C78.6376 24.1344 77.6701 26.1089 73.2619 26.1089C70.8332 26.1089 68.5674 24.8699 68.5674 22.229L68.5427 15.7969H68.5477Z" fill="#222222"></path><path d="M38.6978 15.7969H40.9587V21.9426C40.9587 23.6111 42.0299 24.5589 43.7477 24.5589C45.4656 24.5589 46.5269 23.7345 46.5269 21.8883V15.7969H48.7877V21.839C48.7877 24.1344 47.8202 26.1089 43.412 26.1089C40.9833 26.1089 38.7176 24.8699 38.7176 22.229L38.6929 15.7969H38.6978Z" fill="#222222"></path><path d="M85.4255 15.7969H91.4331C93.6396 15.7969 95.3081 16.5077 95.3081 18.4971C95.3081 20.2495 94.0839 20.9702 92.5437 21.0837V21.1133C94.8342 21.2121 95.0169 22.2388 95.1255 24.0998C95.1304 24.6922 95.2341 25.2796 95.4266 25.8374H92.9979C92.8597 25.3191 92.7807 24.786 92.7757 24.2529C92.677 22.2783 92.2377 21.8735 90.041 21.8735H87.6666V25.8374H85.4058L85.4206 15.7969H85.4255ZM87.6864 20.3235H90.5939C91.9119 20.3235 92.9683 20.0323 92.9683 18.8229C92.9683 17.6135 91.8872 17.4456 90.6926 17.4456H87.6814L87.6913 20.3235H87.6864Z" fill="#222222"></path><path d="M104.702 15.7969H102.441V25.8226H104.702V15.7969Z" fill="#222222"></path></g><defs><clipPath id="clip0_22516_8246"><rect width="129.989" height="39.9944" fill="white" transform="translate(0.0107422 0.963135)"></rect></clipPath></defs></svg>